Coordinates
version=1
nRows=5
nColumns=63
inDegrees=yes

Units are S.I. units (second, meters, Newtons, ...)
If the header above contains a line with 'inDegrees', this indicates whether rotational values are in degrees (yes) or radians (no).

endheader
time	pelvis_tilt	pelvis_list	pelvis_rotation	pelvis_tx	pelvis_ty	pelvis_tz	hip_flexion_r	hip_adduction_r	hip_rotation_r	knee_angle_r	knee_angle_r_beta	ankle_angle_r	subtalar_angle_r	mtp_angle_r	hip_flexion_l	hip_adduction_l	hip_rotation_l	knee_angle_l	knee_angle_l_beta	ankle_angle_l	subtalar_angle_l	mtp_angle_l	L5_S1_Flex_Ext	L5_S1_Lat_Bending	L5_S1_axial_rotation	L4_L5_Flex_Ext	L4_L5_Lat_Bending	L4_L5_axial_rotation	L3_L4_Flex_Ext	L3_L4_Lat_Bending	L3_L4_axial_rotation	L2_L3_Flex_Ext	L2_L3_Lat_Bending	L2_L3_axial_rotation	L1_L2_Flex_Ext	L1_L2_Lat_Bending	L1_L2_axial_rotation	L1_T12_Flex_Ext	L1_T12_Lat_Bending	L1_T12_axial_rotation	Abs_r3	Abs_r2	Abs_r1	Abs_t1	Abs_t2	neck_flexion	neck_bending	neck_rotation	arm_flex_r	arm_add_r	arm_rot_r	elbow_flex_r	pro_sup_r	wrist_flex_r	wrist_dev_r	arm_flex_l	arm_add_l	arm_rot_l	elbow_flex_l	pro_sup_l	wrist_flex_l	wrist_dev_l
      2.81355932	      4.27996728	      1.25491970	     94.63991076	      0.29744162	      0.68209468	      0.89598377	     -0.70381903	      4.82240031	      9.81709896	      1.01441383	      0.01770486	     30.94369441	     -1.07673817	      0.00000000	      1.87703912	     -6.48219704	     24.95413685	     10.18714429	      0.17779921	     26.21653422	    -12.70192941	      0.00000000	      0.05945876	      0.15379811	     -2.21490762	      0.11042087	      0.20455148	     -2.35333935	      0.09768480	      0.37394471	     -2.35333935	      0.06795542	      0.37394471	     -1.93804417	      0.05521341	      0.31362510	     -1.79961244	      0.03397474	      0.23823327	     -1.66118072	      0.42470799	      1.73979493	    -12.31865174	      0.00000000	      0.00000000	     20.28839024	      2.14428222	     24.48671015	    -25.01000952	    -28.70509551	     12.80278958	    105.13117951	     84.49450743	     -5.94307026	     -0.43305135	    -31.55951405	    -19.63659310	      4.89621781	    113.21843643	     89.06468361	     -7.70426124	     -7.48444889
      2.83050847	      4.28916086	      1.28845642	     94.38291154	      0.29669815	      0.68112970	      0.89606497	     -0.92515181	      4.81671395	     13.46412632	      0.80082494	      0.01397703	     29.24749185	     -6.61590741	      0.00000000	      1.74097946	     -6.41471602	     25.26514259	     10.20435302	      0.17809956	     25.76515549	    -13.08356162	      0.00000000	      0.06671277	      0.13576710	     -1.82231389	      0.12389229	      0.18057024	     -1.93620851	      0.10960241	      0.33010413	     -1.93620851	      0.07624603	      0.33010413	     -1.59452465	      0.06194948	      0.27685627	     -1.48063003	      0.03811968	      0.21030324	     -1.36673542	      0.47652266	      1.53582460	    -10.13516315	      0.00000000	      0.00000000	     19.61889440	      3.07641154	     24.94030122	    -26.19920782	    -28.09382609	     11.01549045	    104.89217413	     85.67746993	     -5.42674125	      0.15543506	    -29.95816917	    -20.67609948	      6.10345413	    112.81321973	     89.09310834	     -9.15200652	     -7.04798578
      2.84745763	      4.39446808	      1.23303277	     94.10786628	      0.29606962	      0.67985575	      0.89624927	     -0.95159002	      4.89024353	     13.55291170	      0.77828697	      0.01358367	     28.52737608	     -7.41977739	      0.00000000	      1.76975961	     -6.45986649	     25.25521183	     10.32316275	      0.18017318	     25.36439137	    -13.11699554	      0.00000000	      0.07075256	      0.12906400	     -1.47738125	      0.13139458	      0.17165512	     -1.56971758	      0.11623939	      0.31380621	     -1.56971758	      0.08086310	      0.31380621	     -1.29270859	      0.06570083	      0.26318731	     -1.20037226	      0.04042801	      0.19992014	     -1.10803594	      0.50537848	      1.45999778	     -8.21675129	      0.00000000	      0.00000000	     19.23378759	      4.10955060	     25.61972715	    -26.74371549	    -27.42744101	      9.86164743	    104.42240280	     86.69474427	     -5.09802455	      0.62350704	    -28.42766876	    -21.40115236	      7.05420998	    112.44704235	     89.10137166	     -9.49513774	     -5.57641028
      2.86440678	      4.53541355	      1.13587339	     94.12414359	      0.29530883	      0.67840121	      0.89656819	     -0.89086226	      5.02677678	     13.34436810	      0.80553990	      0.01405932	     27.89871012	     -8.18413573	      0.00000000	      1.98369666	     -6.53679882	     25.34483122	     10.58879834	      0.18480939	     24.99323819	    -13.02360738	      0.00000000	      0.06864634	      0.12331808	     -1.26002849	      0.12748311	      0.16401305	     -1.33878027	      0.11277907	      0.29983558	     -1.33878027	      0.07845590	      0.29983558	     -1.10252493	      0.06374499	      0.25147023	     -1.02377315	      0.03922452	      0.19101971	     -0.94502137	      0.49033391	      1.39499878	     -7.00790044	      0.00000000	      0.00000000	     19.19336884	      5.11774385	     26.13493736	    -26.42427284	    -26.69715948	      9.64794865	    103.54434466	     87.26704940	     -5.20393277	      0.85455737	    -27.01301507	    -21.94432017	      7.83549315	    111.99116614	     89.07419436	     -9.36567338	     -4.04847357
      2.88135593	      4.74297936	      0.89507756	     94.12692969	      0.29457669	      0.67678780	      0.89665869	     -0.65499068	      5.21130844	     13.22170806	      0.82740925	      0.01444102	     27.76136233	     -8.39807416	      0.00000000	      2.26007790	     -6.71239534	     25.51450609	     10.63216458	      0.18556628	     24.95843642	    -12.93511893	      0.00000000	      0.09202435	      0.13062529	     -1.15467043	      0.17089842	      0.17373164	     -1.22683733	      0.15118680	      0.31760234	     -1.22683733	      0.10517463	      0.31760234	     -1.01033663	      0.08545381	      0.26637110	     -0.93816972	      0.05258271	      0.20233858	     -0.86600282	      0.65732071	      1.47765943	     -6.42193053	      0.00000000	      0.00000000	     19.39923572	      5.29994469	     26.25824156	    -25.24753973	    -25.94870983	     10.23379480	    102.26513974	     87.45234046	     -5.19232321	      1.18472687	    -26.10480898	    -21.92161494	      8.17150209	    111.26280150	     89.04041750	     -9.26910176	     -3.49626938
